Coordinates
version=1
nRows=29
nColumns=24
inDegrees=yes

Units are S.I. units (second, meters, Newtons, ...)
Angles are in degrees.

endheader
time	pelvis_tilt	pelvis_list	pelvis_rotation	pelvis_tx	pelvis_ty	pelvis_tz	hip_flexion_r	hip_adduction_r	hip_rotation_r	knee_angle_r	ankle_angle_r	subtalar_angle_r	mtp_angle_r	hip_flexion_l	hip_adduction_l	hip_rotation_l	knee_angle_l	ankle_angle_l	subtalar_angle_l	mtp_angle_l	lumbar_extension	lumbar_bending	lumbar_rotation
      1.32100000	     -6.79925178	      5.56364018	     -0.67250501	      0.34690830	      0.99509097	      0.28181759	     27.30795275	     -5.95652162	      1.13039756	    -69.59989700	     -6.85856185	    -11.33233720	      4.75962226	     14.42443551	     10.30129102	     -1.77790543	     -6.49350637	     -1.35165991	     -7.43680599	      2.02023119	      3.71556146	     -3.44851681	      4.13642628
      1.32516667	     -6.73659449	      5.49207498	     -0.56922831	      0.35180059	      0.99575840	      0.28162711	     27.77092464	     -5.86273562	      1.15048078	    -69.29331333	     -6.11281645	    -11.73259252	      4.55997501	     13.91528986	     10.27278865	     -1.59400455	     -6.27664690	     -1.24486453	     -7.42986992	      1.98156543	      3.61251439	     -3.38733105	      3.92125116
      1.32933333	     -6.72044642	      5.40166701	     -0.46061508	      0.35665501	      0.99630131	      0.28142248	     28.27385884	     -5.75663128	      1.15816734	    -68.93816515	     -5.34580056	    -11.94115219	      4.50669713	     13.48013425	     10.22175496	     -1.42052993	     -6.10501116	     -1.11098854	     -7.39009768	      1.97146407	      3.56108346	     -3.29636710	      3.87588024
      1.33350000	     -6.67399926	      5.31019926	     -0.35311737	      0.36150417	      0.99687792	      0.28122529	     28.72551833	     -5.65150525	      1.16121791	    -68.52342367	     -4.60372798	    -12.21393458	      4.44063331	     13.01066224	     10.16961377	     -1.23024039	     -5.92779230	     -0.99524419	     -7.37745031	      1.95706819	      3.45673179	     -3.20630021	      3.77983369
      1.33766667	     -6.63039956	      5.24812150	     -0.24658274	      0.36632759	      0.99738677	      0.28103104	     29.17728055	     -5.57653460	      1.17793240	    -68.07289062	     -3.93625062	    -12.58856010	      4.24982597	     12.53202100	     10.15084676	     -0.98799074	     -5.71753038	     -0.91619834	     -7.46760017	      1.90781755	      3.34594799	     -3.15592508	      3.54352222
      1.34183333	     -6.58039297	      5.15130127	     -0.13108863	      0.37117466	      0.99790423	      0.28083125	     29.58964819	     -5.47672021	      1.16209580	    -67.54678875	     -3.25888756	    -12.83396572	      4.06574591	     12.05510444	     10.09275497	     -0.76241331	     -5.52987552	     -0.81034677	     -7.50749731	      1.85726945	      3.24244518	     -3.05752265	      3.41438081
      1.34600000	     -6.57774316	      5.03489889	     -0.00809953	      0.37600600	      0.99831467	      0.28063433	     30.03521104	     -5.36078433	      1.13180002	    -66.96246840	     -2.63057856	    -13.00334478	      4.00085994	     11.64771389	     10.01041845	     -0.55679069	     -5.37664217	     -0.69011465	     -7.50415145	      1.83924354	      3.19912482	     -2.93175445	      3.36371622
      1.35016667	     -6.52119179	      4.96812205	      0.10839331	      0.38083220	      0.99874830	      0.28043913	     30.41722703	     -5.29754653	      1.12483121	    -66.34787117	     -2.02114159	    -13.30988425	      3.76661754	     11.15891577	      9.98404745	     -0.27508168	     -5.17150819	     -0.62813819	     -7.66122437	      1.76505096	      3.08082988	     -2.88362648	      3.12316077
      1.35433333	     -6.49288322	      4.87761017	      0.22648320	      0.38565809	      0.99910591	      0.28025149	     30.80873496	     -5.21373261	      1.10112696	    -65.67493489	     -1.42430187	    -13.50565075	      3.55473365	     10.71715574	      9.92725291	     -0.03789983	     -4.99923211	     -0.51051285	     -7.74205900	      1.69574744	      3.00390035	     -2.79608276	      2.99997169
      1.35850000	     -6.48222961	      4.76098592	      0.35415650	      0.39048333	      0.99943323	      0.28007691	     31.19043059	     -5.10651339	      1.05930493	    -64.92973183	     -0.88642014	    -13.63668174	      3.47339726	     10.31608743	      9.83854075	      0.17602605	     -4.87118750	     -0.38559927	     -7.75943662	      1.66895775	      2.94898013	     -2.68098961	      2.94969835
      1.36266667	     -6.43024096	      4.69372330	      0.46539436	      0.39532151	      0.99974979	      0.27990143	     31.52623556	     -5.05055826	      1.04104968	    -64.16323083	     -0.38904509	    -13.86769940	      3.24972290	      9.83418237	      9.80358941	      0.45451052	     -4.66503491	     -0.30178839	     -7.91903548	      1.58940854	      2.83883310	     -2.61459593	      2.73288477
      1.36683333	     -6.44435782	      4.60093497	      0.59297814	      0.40013403	      0.99994258	      0.27973491	     31.90964811	     -4.97368464	      1.00323576	    -63.33660412	      0.09472648	    -13.96161444	      3.17091460	      9.46764068	      9.73578674	      0.66742778	     -4.54730889	     -0.15916053	     -7.94920178	      1.56170174	      2.81306962	     -2.52824645	      2.69057315
      1.37100000	     -6.36052705	      4.53147106	      0.70059051	      0.40499386	      1.00025771	      0.27957775	     32.16613580	     -4.92040010	      0.97649223	    -62.45699197	      0.52221515	    -14.13512526	      2.97212431	      8.95578935	      9.69200206	      0.93078507	     -4.34871357	     -0.06250647	     -8.10319215	      1.48607898	      2.67556430	     -2.46293215	      2.49602750
      1.37516667	     -6.36670147	      4.43833711	      0.82365619	      0.40981541	      1.00040023	      0.27943485	     32.50094799	     -4.84233028	      0.94011329	    -61.52830715	      0.93214781	    -14.21604566	      2.88416260	      8.58536435	      9.61745269	      1.14933207	     -4.23883971	      0.08650874	     -8.14591306	      1.45371982	      2.63540707	     -2.37311546	      2.44364821
      1.37933333	     -6.35280877	      4.37270706	      0.93521568	      0.41465289	      1.00052742	      0.27930497	     32.80218714	     -4.79155975	      0.91703581	    -60.56240034	      1.30285860	    -14.30913579	      2.80247294	      8.17968553	      9.56929305	      1.37368995	     -4.09972442	      0.23401822	     -8.20920791	      1.42319750	      2.57821575	     -2.31689406	      2.35908440
      1.38350000	     -6.28930362	      4.32590847	      1.03687741	      0.41952268	      1.00068761	      0.27916362	     33.03112135	     -4.76273101	      0.89775449	    -59.55354323	      1.59629223	    -14.42842392	      2.54946723	      7.68835183	      9.54200416	      1.66889824	     -3.89754552	      0.31403656	     -8.41405013	      1.32043212	      2.45868408	     -2.27069783	      2.12328456
      1.38766667	     -6.24619612	      4.26061574	      1.14471716	      0.42439776	      1.00080154	      0.27904444	     33.25513467	     -4.71692168	      0.86303396	    -58.48745311	      1.89057411	    -14.49338698	      2.30866059	      7.24748668	      9.48835753	      1.89946273	     -3.75490811	      0.46472561	     -8.50844270	      1.22370885	      2.36891410	     -2.20928373	      2.01766672
      1.39183333	     -6.26855397	      4.20633869	      1.25498039	      0.42924774	      1.00077396	      0.27894297	     33.53999045	     -4.68038305	      0.83752824	    -57.39015750	      2.16300893	    -14.52494704	      2.22821107	      6.89985372	      9.44263091	      2.09521701	     -3.65584627	      0.64234688	     -8.53488564	      1.19369029	      2.35392290	     -2.16875575	      1.98919683
      1.39600000	     -6.23959055	      4.18007363	      1.36819835	      0.43411485	      1.00079130	      0.27880776	     33.75027400	     -4.68046664	      0.81072589	    -56.25695506	      2.40083846	    -14.57335108	      1.48840271	      6.45079481	      9.43105572	      2.44053171	     -3.46505027	      0.69079289	     -8.80801673	      0.88216288	      2.28103057	     -2.14733082	      1.72978510
      1.40016667	     -6.19804406	      4.12236202	      1.45290688	      0.43902449	      1.00081008	      0.27875478	     33.91578337	     -4.63199104	      0.78395522	    -55.05285724	      2.57378744	    -14.59874674	      1.40043947	      6.03500693	      9.37092172	      2.57198546	     -3.37184256	      0.93027010	     -8.76192296	      0.85186644	      2.19143647	     -2.09819775	      1.75390289
      1.40433333	     -6.18486493	      4.09185050	      1.54033213	      0.44392147	      1.00073946	      0.27869789	     34.10279426	     -4.61167382	      0.77142142	    -53.82736181	      2.72993044	    -14.63248914	      1.32037197	      5.63917608	      9.33980076	      2.75216520	     -3.25515463	      1.11746471	     -8.77417649	      0.82342466	      2.13964976	     -2.08224356	      1.70799453
      1.40850000	     -6.11716196	      4.07997381	      1.61274401	      0.44884652	      1.00071541	      0.27864998	     34.21197286	     -4.60657411	      0.76477319	    -52.56265075	      2.83333709	    -14.68239284	      1.16590110	      5.16355244	      9.32568299	      2.95038205	     -3.09829154	      1.26670758	     -8.84182295	      0.76277329	      2.02215390	     -2.07686969	      1.58477067
      1.41266667	     -6.14594393	      4.07829378	      1.69842941	      0.45374892	      1.00050759	      0.27859394	     34.41300265	     -4.61738522	      0.75892726	    -51.27530577	      2.96516687	    -14.68323066	      1.11102717	      4.82039081	      9.32349458	      3.13324455	     -3.00206566	      1.46712026	     -8.85406296	      0.74446178	      2.03336224	     -2.07924401	      1.56210801
      1.41683333	     -6.10353835	      4.03455285	      1.78621300	      0.45867870	      1.00041671	      0.27856527	     34.49419049	     -4.59030353	      0.70586651	    -49.90930934	      3.02381777	    -14.70480444	      1.02180329	      4.39436309	      9.27025606	      3.30761772	     -2.89028812	      1.64687907	     -8.90480937	      0.71072854	      1.93485023	     -2.05711477	      1.48533390
      1.42100000	     -6.09048779	      4.04150588	      1.85824019	      0.46361469	      1.00019905	      0.27853905	     34.60910965	     -4.60931241	      0.68453276	    -48.54625372	      3.08585338	    -14.70976583	      0.93586125	      3.99348453	      9.27027269	      3.48024876	     -2.77020861	      1.83434389	     -8.93624327	      0.67855085	      1.88158411	     -2.07508096	      1.41642403
      1.42516667	     -6.07584319	      4.03505453	      1.92973278	      0.46855715	      0.99998895	      0.27853041	     34.69308761	     -4.61215775	      0.65615702	    -47.13040973	      3.12185906	    -14.71271216	      0.85028289	      3.59424051	      9.25280133	      3.64037745	     -2.65588509	      2.02136291	     -8.95596352	      0.64571724	      1.82954965	     -2.08148551	      1.35170412
      1.42933333	     -6.03814786	      4.05221291	      1.98570431	      0.47351356	      0.99976405	      0.27854665	     34.73945846	     -4.63125628	      0.64086164	    -45.69152214	      3.13398038	    -14.71812557	      0.71625965	      3.15936647	      9.25670230	      3.79425243	     -2.52129804	      2.19983785	     -8.96350931	      0.59032780	      1.74074180	     -2.11581325	      1.25568938
      1.43350000	     -6.06800055	      4.07307857	      2.05951689	      0.47847059	      0.99940489	      0.27853318	     34.84001302	     -4.66928605	      0.59973592	    -44.22938660	      3.17358929	    -14.67591672	      0.65107031	      2.81837980	      9.26852282	      3.93930001	     -2.43463328	      2.42038583	     -8.96460765	      0.56532340	      1.75592896	     -2.13869895	      1.23226702
      1.43766667	     -6.05395645	      4.08949347	      2.12084534	      0.48343561	      0.99909211	      0.27855641	     34.87050331	     -4.69699299	      0.55037793	    -42.72538612	      3.16538158	    -14.62532651	      0.57430603	      2.42520279	      9.26915834	      4.06403635	     -2.33525404	      2.62304366	     -8.95546235	      0.53311824	      1.69780703	     -2.18136145	      1.18269934
